<svg width="46" height="30" viewBox="0 0 46 30" fill="none" xmlns="http://www.w3.org/2000/svg">
<g filter="url(#filter0_d_3_140)">
<path d="M13.5491 0.000593064C13.3881 0.00836571 13.2358 0.0759673 13.122 0.190161L10.655 2.65715C10.5885 2.72339 10.5373 2.8033 10.5048 2.89132C10.4723 2.97935 10.4593 3.07338 10.4668 3.16692C10.4742 3.26045 10.5019 3.35125 10.548 3.43301C10.594 3.51477 10.6573 3.58554 10.7334 3.64041L24.0971 13.296C24.2219 13.3859 24.3746 13.4284 24.5279 13.4159C24.6812 13.4035 24.8251 13.3368 24.9337 13.2278L29.491 8.67048C29.5639 8.59773 29.6184 8.50863 29.6499 8.4106C29.6815 8.31257 29.6891 8.20843 29.6723 8.10683C29.6555 8.00523 29.6147 7.90912 29.5533 7.82646C29.4919 7.74381 29.4116 7.67701 29.3192 7.63161L13.8626 0.066349C13.7653 0.018521 13.6575 -0.00408538 13.5491 0.000606023V0.000593064ZM13.7084 1.43125L27.9365 8.39491L24.4079 11.9235L12.1058 3.0363L13.7084 1.43125ZM33.1561 11.6758C33.0695 11.6745 32.9834 11.6906 32.9031 11.7231C32.8228 11.7557 32.7498 11.8041 32.6885 11.8654L28.1286 16.4253C28.0201 16.5342 27.9538 16.6782 27.9417 16.8315C27.9297 16.9848 27.9726 17.1374 28.0629 17.2619L37.7185 30.6256C37.7734 30.7013 37.8441 30.7642 37.9256 30.81C38.0071 30.8558 38.0976 30.8833 38.1908 30.8908C38.284 30.8982 38.3777 30.8854 38.4655 30.8532C38.5533 30.8209 38.633 30.77 38.6992 30.704L41.1662 28.237C41.2619 28.1416 41.3252 28.0186 41.3474 27.8854C41.3697 27.7521 41.3496 27.6152 41.2901 27.4939L33.7273 12.0399C33.675 11.9323 33.594 11.8414 33.4931 11.7772C33.3923 11.7129 33.2756 11.6779 33.1561 11.6759L33.1561 11.6758ZM32.9615 13.4224L39.9252 27.648L38.3227 29.2506L29.4329 16.951L32.9615 13.4224Z" fill="white"/>
<path d="M35.8253 1.9823C34.9148 1.98235 34.0025 2.32897 33.3103 3.02116L12.8035 23.528L11.9314 23.025L9.98007 21.8926L8.02619 20.7627C7.90275 20.6917 7.75929 20.6633 7.61808 20.682C7.47686 20.7008 7.34575 20.7656 7.24513 20.8664L6.01165 22.0999L4.77814 23.3334C4.71304 23.3985 4.6626 23.4767 4.63015 23.5629C4.59771 23.6491 4.58401 23.7411 4.58999 23.833C4.59597 23.9249 4.62147 24.0144 4.66481 24.0956C4.70815 24.1769 4.76833 24.2479 4.84131 24.304L11.762 29.5944L17.0549 36.5151C17.1108 36.5883 17.1817 36.6486 17.2628 36.6922C17.344 36.7358 17.4335 36.7616 17.5253 36.7678C17.6172 36.774 17.7094 36.7605 17.7956 36.7283C17.8819 36.6961 17.9603 36.6458 18.0255 36.5808L19.259 35.3474L20.4925 34.1139C20.5935 34.0127 20.6582 33.881 20.6765 33.7393C20.6948 33.5975 20.6656 33.4537 20.5936 33.3303L19.4637 31.3789L18.3339 29.4251L17.8283 28.5556L38.3377 8.04619C39.7221 6.66182 39.722 4.40552 38.3377 3.02122C37.6455 2.32908 36.7357 1.9823 35.8252 1.98236L35.8253 1.9823ZM35.8253 3.26634C36.401 3.2663 36.9762 3.48963 37.4228 3.93617C38.3158 4.82925 38.3161 6.23781 37.4228 7.13112L16.5747 27.9792C16.4776 28.0765 16.4139 28.2022 16.393 28.3381C16.3721 28.474 16.3951 28.613 16.4585 28.735L16.6354 29.0737C16.6395 29.0822 16.6438 29.0906 16.6483 29.0989L17.2145 30.0746L18.3444 32.0259L19.2266 33.5501L18.3444 34.4322L17.6342 35.1425L12.7381 28.74C12.7032 28.6943 12.6624 28.6536 12.6167 28.6187L6.21669 23.7252L6.92696 23.0149L7.80911 22.1328L9.33076 23.0124L11.2846 24.1448L12.2603 24.7084C12.2686 24.7137 12.277 24.7187 12.2855 24.7236L12.6217 24.898C12.744 24.962 12.8835 24.9852 13.0199 24.9643C13.1564 24.9434 13.2825 24.8794 13.38 24.7816L34.2255 3.9361C34.6722 3.48945 35.2498 3.26632 35.8255 3.26627L35.8253 3.26634Z" fill="white"/>
<path fill-rule="evenodd" clip-rule="evenodd" d="M14.684 26.0075C14.5161 26.0122 14.3566 26.082 14.2392 26.2021L10.9507 29.4931C10.8886 29.5528 10.839 29.6242 10.8048 29.7032C10.7707 29.7822 10.7526 29.8673 10.7517 29.9534C10.7509 30.0395 10.7672 30.1249 10.7997 30.2046C10.8322 30.2843 10.8804 30.3567 10.9413 30.4176C11.0021 30.4785 11.0746 30.5266 11.1543 30.5591C11.234 30.5917 11.3194 30.608 11.4055 30.6071C11.4915 30.6062 11.5766 30.5882 11.6556 30.554C11.7347 30.5198 11.8061 30.4703 11.8657 30.4081L15.1542 27.1171C15.2472 27.0262 15.3107 26.9093 15.3363 26.7817C15.3619 26.6541 15.3484 26.5218 15.2976 26.4019C15.2469 26.2821 15.1612 26.1804 15.0517 26.11C14.9422 26.0397 14.8141 26.0039 14.684 26.0075Z" fill="white"/>
<path fill-rule="evenodd" clip-rule="evenodd" d="M13.1675 6.72162L11.522 8.36711L12.437 9.28212L14.0825 7.63663L13.1675 6.72162ZM15.6345 9.18861L12.3435 12.4771L13.2585 13.3921L16.5495 10.1036L15.6345 9.18861ZM33.7198 27.2765L32.0768 28.9194L32.9918 29.8345L34.6348 28.1915L33.7198 27.2765ZM31.2553 24.8095L27.9643 28.098L28.8794 29.013L32.1704 25.7245L31.2553 24.8095Z" fill="white"/>
</g>
<defs>
<filter id="filter0_d_3_140" x="0.588623" y="0" width="44.7676" height="44.7693" filterUnits="userSpaceOnUse" color-interpolation-filters="sRGB">
<feFlood flood-opacity="0" result="BackgroundImageFix"/>
<feColorMatrix in="SourceAlpha" type="matrix" values="0 0 0 0 0 0 0 0 0 0 0 0 0 0 0 0 0 0 127 0" result="hardAlpha"/>
<feOffset dy="4"/>
<feGaussianBlur stdDeviation="2"/>
<feComposite in2="hardAlpha" operator="out"/>
<feColorMatrix type="matrix" values="0 0 0 0 0 0 0 0 0 0 0 0 0 0 0 0 0 0 0.25 0"/>
<feBlend mode="normal" in2="BackgroundImageFix" result="effect1_dropShadow_3_140"/>
<feBlend mode="normal" in="SourceGraphic" in2="effect1_dropShadow_3_140" result="shape"/>
</filter>
</defs>
</svg>
