<svg width="29" height="29" viewBox="0 0 29 29" fill="none" xmlns="http://www.w3.org/2000/svg">
<path d="M14.5 2C12.1564 2.00445 9.86468 2.69033 7.90397 3.9741C5.94327 5.25787 4.3982 7.08411 3.45696 9.23039C2.51572 11.3767 2.21894 13.7503 2.60277 16.0623C2.9866 18.3742 4.03446 20.5247 5.61874 22.2517C6.75025 23.4782 8.12354 24.457 9.65208 25.1265C11.1806 25.796 12.8313 26.1417 14.5 26.1417C16.1687 26.1417 17.8194 25.796 19.3479 25.1265C20.8764 24.457 22.2497 23.4782 23.3812 22.2517C24.9655 20.5247 26.0134 18.3742 26.3972 16.0623C26.781 13.7503 26.4843 11.3767 25.543 9.23039C24.6018 7.08411 23.0567 5.25787 21.096 3.9741C19.1353 2.69033 16.8436 2.00445 14.5 2ZM14.5 23.75C11.9969 23.7462 9.59284 22.7716 7.79374 21.0312C8.33996 19.7015 9.26915 18.5642 10.4633 17.7638C11.6574 16.9634 13.0624 16.536 14.5 16.536C15.9375 16.536 17.3426 16.9634 18.5367 17.7638C19.7308 18.5642 20.66 19.7015 21.2062 21.0312C19.4071 22.7716 17.0031 23.7462 14.5 23.75ZM12.0833 11.6667C12.0833 11.1887 12.2251 10.7215 12.4906 10.324C12.7562 9.92662 13.1336 9.61687 13.5752 9.43396C14.0168 9.25105 14.5027 9.20319 14.9715 9.29643C15.4402 9.38968 15.8709 9.61985 16.2088 9.95783C16.5468 10.2958 16.777 10.7264 16.8702 11.1952C16.9635 11.664 16.9156 12.1499 16.7327 12.5915C16.5498 13.0331 16.24 13.4105 15.8426 13.6761C15.4452 13.9416 14.978 14.0833 14.5 14.0833C13.859 14.0833 13.2444 13.8287 12.7911 13.3755C12.3379 12.9223 12.0833 12.3076 12.0833 11.6667ZM22.8496 18.9167C21.77 17.07 20.1083 15.6337 18.125 14.8325C18.7402 14.1349 19.1411 13.2745 19.2795 12.3547C19.4179 11.4349 19.288 10.4947 18.9053 9.64693C18.5226 8.79915 17.9034 8.0798 17.122 7.57521C16.3406 7.07062 15.4302 6.80222 14.5 6.80222C13.5698 6.80222 12.6594 7.07062 11.878 7.57521C11.0966 8.0798 10.4774 8.79915 10.0947 9.64693C9.712 10.4947 9.58206 11.4349 9.72046 12.3547C9.85887 13.2745 10.2597 14.1349 10.875 14.8325C8.89163 15.6337 7.23001 17.07 6.1504 18.9167C5.29 17.4511 4.8354 15.7828 4.83332 14.0833C4.83332 11.5196 5.85177 9.06082 7.66462 7.24797C9.47747 5.43512 11.9362 4.41667 14.5 4.41667C17.0637 4.41667 19.5225 5.43512 21.3354 7.24797C23.1482 9.06082 24.1667 11.5196 24.1667 14.0833C24.1646 15.7828 23.71 17.4511 22.8496 18.9167Z" fill="black"/>
</svg>
